<?xml version="1.0" encoding="utf-8"?>
<svg viewBox="0 0 500 500" style="shape-rendering: geometricprecision;" xmlns="http://www.w3.org/2000/svg">
  <g transform="matrix(1.95037, 0, 0, 1.92418, 1.327653, -0.601142)" style=""/>
  <g transform="matrix(3.22183, 0, 0, 3.227406, -158.683578, -13.699218)" style="">
    <path style="opacity:1" fill="#1250af" d="M 78.5,40.5 C 76.4938,39.8336 74.6605,39.8336 73,40.5C 71.2714,40.0257 70.1047,39.0257 69.5,37.5C 90.5976,13.5541 116.598,6.05414 147.5,15C 161.981,20.2397 173.981,28.9064 183.5,41C 177.02,38.5046 170.353,36.1713 163.5,34C 142.549,18.9571 120.216,16.6237 96.5,27C 89.9335,30.7791 83.9335,35.2791 78.5,40.5 Z"/>
  </g>
  <g transform="matrix(3.22183, 0, 0, 3.227406, -158.683578, -13.699218)" style="">
    <path style="opacity:1" fill="#0c53b1" d="M 199.5,62.5 C 200.677,64.1026 200.511,65.436 199,66.5C 195.443,64.3574 192.11,63.6907 189,64.5C 185.478,62.2572 182.144,61.5905 179,62.5C 176.279,59.9937 173.612,59.327 171,60.5C 167.443,58.3574 164.11,57.6907 161,58.5C 158.706,57.5783 156.539,56.5783 154.5,55.5C 159.989,53.8812 165.656,53.0479 171.5,53C 161.121,50.9617 150.787,51.1283 140.5,53.5C 138.173,53.3354 136.007,52.6687 134,51.5C 133,51.8333 132,52.1667 131,52.5C 129.333,51.5 127.667,50.5 126,49.5C 123.564,50.0974 120.897,50.0974 118,49.5C 117.333,48.8333 116.667,48.1667 116,47.5C 113.564,48.0974 110.897,48.0974 108,47.5C 106.961,46.7562 106.461,45.7562 106.5,44.5C 131.637,30.8266 156.637,31.3266 181.5,46C 188.348,50.6857 194.348,56.1857 199.5,62.5 Z"/>
  </g>
  <g transform="matrix(3.22183, 0, 0, 3.227406, -158.683578, -13.699218)" style="">
    <path style="opacity:1" fill="#095cb4" d="M 106.5,44.5 C 106.461,45.7562 106.961,46.7562 108,47.5C 110.897,48.0974 113.564,48.0974 116,47.5C 116.667,48.1667 117.333,48.8333 118,49.5C 120.897,50.0974 123.564,50.0974 126,49.5C 127.667,50.5 129.333,51.5 131,52.5C 132,52.1667 133,51.8333 134,51.5C 136.007,52.6687 138.173,53.3354 140.5,53.5C 135.992,55.676 131.325,57.676 126.5,59.5C 125.883,59.3893 125.383,59.056 125,58.5C 123.899,60.3939 122.566,61.0606 121,60.5C 119.938,59.1007 118.605,58.1007 117,57.5C 114.835,57.4062 112.835,57.7395 111,58.5C 109.938,57.1007 108.605,56.1007 107,55.5C 104.835,55.4062 102.835,55.7395 101,56.5C 99.5402,53.7902 97.5402,53.1235 95,54.5C 94.5357,53.9056 94.369,53.2389 94.5,52.5C 97.8033,48.8442 101.803,46.1775 106.5,44.5 Z"/>
  </g>
  <g transform="matrix(3.22183, 0, 0, 3.227406, -158.683578, -13.699218)" style="">
    <path style="opacity:1" fill="#1866b9" d="M 69.5,37.5 C 70.1047,39.0257 71.2714,40.0257 73,40.5C 74.6605,39.8336 76.4938,39.8336 78.5,40.5C 73.6253,45.3767 69.9587,51.0434 67.5,57.5C 65.3987,60.7966 64.0653,64.4632 63.5,68.5C 62.603,67.4019 61.7697,67.4019 61,68.5C 59.8989,66.6061 58.5655,65.9394 57,66.5C 56.9515,62.4608 57.4515,58.4608 58.5,54.5C 60.9129,48.0743 64.5796,42.4077 69.5,37.5 Z"/>
  </g>
  <g transform="matrix(3.22183, 0, 0, 3.227406, -158.683578, -13.699218)" style="">
    <path style="opacity:1" fill="#0d66b8" d="M 94.5,52.5 C 94.369,53.2389 94.5357,53.9056 95,54.5C 97.5402,53.1235 99.5402,53.7902 101,56.5C 102.835,55.7395 104.835,55.4062 107,55.5C 108.605,56.1007 109.938,57.1007 111,58.5C 112.835,57.7395 114.835,57.4062 117,57.5C 118.605,58.1007 119.938,59.1007 121,60.5C 122.566,61.0606 123.899,60.3939 125,58.5C 125.383,59.056 125.883,59.3893 126.5,59.5C 118.274,64.8873 111.108,71.554 105,79.5C 104.495,77.4817 103.995,75.4817 103.5,73.5C 103.59,70.8478 102.924,68.5145 101.5,66.5C 101.728,64.6453 101.061,63.8119 99.5,64C 96.9688,67.3575 94.3021,70.5242 91.5,73.5C 89.3709,73.5159 87.5376,72.8492 86,71.5C 85,71.8333 84,72.1667 83,72.5C 81.2771,70.3332 81.1104,67.9998 82.5,65.5C 85.7703,60.5603 89.7703,56.2269 94.5,52.5 Z"/>
  </g>
  <g transform="matrix(3.22183, 0, 0, 3.227406, -158.683578, -13.699218)" style="">
    <path style="opacity:1" fill="#105db5" d="M 154.5,55.5 C 156.539,56.5783 158.706,57.5783 161,58.5C 164.11,57.6907 167.443,58.3574 171,60.5C 173.612,59.327 176.279,59.9937 179,62.5C 182.144,61.5905 185.478,62.2572 189,64.5C 192.11,63.6907 195.443,64.3574 199,66.5C 200.511,65.436 200.677,64.1026 199.5,62.5C 201.624,64.0592 203.291,66.0592 204.5,68.5C 197.159,69.2717 189.826,69.9383 182.5,70.5C 178.754,70.3411 174.921,70.3411 171,70.5C 170,69.5 169,68.5 168,67.5C 165.667,67.8333 163.333,68.1667 161,68.5C 160,67.5 159,66.5 158,65.5C 155.667,65.8333 153.333,66.1667 151,66.5C 150,65.5 149,64.5 148,63.5C 145.667,63.8333 143.333,64.1667 141,64.5C 139.812,63.4366 139.312,62.1033 139.5,60.5C 144.155,57.8372 149.155,56.1706 154.5,55.5 Z"/>
  </g>
  <g transform="matrix(3.22183, 0, 0, 3.227406, -158.683578, -13.699218)" style="">
    <path style="opacity:1" fill="#9bc1dd" d="M 67.5,57.5 C 66.7444,61.767 65.411,65.767 63.5,69.5C 63.5,69.1667 63.5,68.8333 63.5,68.5C 64.0653,64.4632 65.3987,60.7966 67.5,57.5 Z"/>
  </g>
  <g transform="matrix(3.22183, 0, 0, 3.227406, -158.683578, -13.699218)" style="">
    <path style="opacity:1" fill="#0766b8" d="M 139.5,60.5 C 139.312,62.1033 139.812,63.4366 141,64.5C 143.333,64.1667 145.667,63.8333 148,63.5C 149,64.5 150,65.5 151,66.5C 153.333,66.1667 155.667,65.8333 158,65.5C 159,66.5 160,67.5 161,68.5C 163.333,68.1667 165.667,67.8333 168,67.5C 169,68.5 170,69.5 171,70.5C 174.921,70.3411 178.754,70.3411 182.5,70.5C 174.544,74.4863 167.211,79.4863 160.5,85.5C 157.763,83.6006 155.263,83.2673 153,84.5C 149.478,82.2572 146.144,81.5905 143,82.5C 142.5,82 142,81.5 141.5,81C 136.43,80.5589 131.263,79.3922 126,77.5C 124.096,78.1016 122.263,77.6016 120.5,76C 121.252,75.3292 121.586,74.4959 121.5,73.5C 126.755,68.1991 132.755,63.8658 139.5,60.5 Z"/>
  </g>
  <g transform="matrix(3.22183, 0, 0, 3.227406, -158.683578, -13.699218)" style="">
    <path style="opacity:1" fill="#1176bf" d="M 58.5,54.5 C 57.4515,58.4608 56.9515,62.4608 57,66.5C 58.5655,65.9394 59.8989,66.6061 61,68.5C 61.7697,67.4019 62.603,67.4019 63.5,68.5C 63.5,68.8333 63.5,69.1667 63.5,69.5C 62.5655,70.5676 62.2322,71.901 62.5,73.5C 61.6728,78.9851 61.1728,84.6518 61,90.5C 58.7935,89.9178 56.2935,89.5845 53.5,89.5C 53.2831,81.0851 53.9497,72.7518 55.5,64.5C 55.7234,60.8379 56.7234,57.5046 58.5,54.5 Z"/>
  </g>
  <g transform="matrix(3.22183, 0, 0, 3.227406, -158.683578, -13.699218)" style="">
    <path style="opacity:1" fill="#76abd4" d="M 101.5,66.5 C 102.924,68.5145 103.59,70.8478 103.5,73.5C 102.076,71.4855 101.41,69.1522 101.5,66.5 Z"/>
  </g>
  <g transform="matrix(3.22183, 0, 0, 3.227406, -158.683578, -13.699218)" style="">
    <path style="opacity:1" fill="#1877c0" d="M 82.5,65.5 C 81.1104,67.9998 81.2771,70.3332 83,72.5C 84,72.1667 85,71.8333 86,71.5C 87.5376,72.8492 89.3709,73.5159 91.5,73.5C 88.0571,78.0506 85.3905,83.0506 83.5,88.5C 82.1302,90.2504 81.1302,92.2504 80.5,94.5C 78.4938,93.8336 76.6605,93.8336 75,94.5C 74.3109,93.6433 73.4776,92.9767 72.5,92.5C 71.6789,89.5535 71.6789,86.5535 72.5,83.5C 74.6057,76.7501 77.9391,70.7501 82.5,65.5 Z"/>
  </g>
  <g transform="matrix(3.22183, 0, 0, 3.227406, -158.683578, -13.699218)" style="">
    <path style="opacity:1" fill="#83b9da" d="M 55.5,64.5 C 53.9497,72.7518 53.2831,81.0851 53.5,89.5C 53.5,90.5 53.5,91.5 53.5,92.5C 52.3454,85.6791 52.1787,78.6791 53,71.5C 53.1558,68.8091 53.9891,66.4758 55.5,64.5 Z"/>
  </g>
  <g transform="matrix(3.22183, 0, 0, 3.227406, -158.683578, -13.699218)" style="">
    <path style="opacity:1" fill="#0c67b9" d="M 195.5,92.5 C 193.457,92.4923 191.29,91.8257 189,90.5C 188.219,85.0833 188.385,79.7499 189.5,74.5C 191.701,73.4336 194.035,72.767 196.5,72.5C 196.824,79.3543 196.491,86.021 195.5,92.5 Z"/>
  </g>
  <g transform="matrix(3.22183, 0, 0, 3.227406, -158.683578, -13.699218)" style="">
    <path style="opacity:1" fill="#0d74bf" d="M 121.5,73.5 C 121.586,74.4959 121.252,75.3292 120.5,76C 122.263,77.6016 124.096,78.1016 126,77.5C 131.263,79.3922 136.43,80.5589 141.5,81C 142,81.5 142.5,82 143,82.5C 146.144,81.5905 149.478,82.2572 153,84.5C 155.263,83.2673 157.763,83.6006 160.5,85.5C 153.799,93.202 146.466,100.202 138.5,106.5C 135.956,106.952 133.456,106.285 131,104.5C 129.853,105.458 128.853,105.125 128,103.5C 125.564,104.097 122.897,104.097 120,103.5C 118.445,101.854 116.779,101.521 115,102.5C 111.887,101.08 109.054,100.08 106.5,99.5C 107.15,97.5648 107.483,95.5648 107.5,93.5C 110.692,85.7753 115.359,79.1087 121.5,73.5 Z"/>
  </g>
  <g transform="matrix(3.22183, 0, 0, 3.227406, -158.683578, -13.699218)" style="">
    <path style="opacity:1" fill="#a3cde2" d="M 83.5,88.5 C 82.4111,93.7669 80.7444,98.7669 78.5,103.5C 78.7556,100.402 79.4222,97.4021 80.5,94.5C 81.1302,92.2504 82.1302,90.2504 83.5,88.5 Z"/>
  </g>
  <g transform="matrix(3.22183, 0, 0, 3.227406, -158.683578, -13.699218)" style="">
    <path style="opacity:1" fill="#1983c5" d="M 103.5,104.5 C 104.687,102.928 105.687,101.261 106.5,99.5C 109.054,100.08 111.887,101.08 115,102.5C 116.779,101.521 118.445,101.854 120,103.5C 122.897,104.097 125.564,104.097 128,103.5C 128.853,105.125 129.853,105.458 131,104.5C 133.456,106.285 135.956,106.952 138.5,106.5C 135.197,110.156 131.197,112.822 126.5,114.5C 124.371,114.516 122.538,113.849 121,112.5C 119.853,113.458 118.853,113.125 118,111.5C 114.789,112.863 111.456,112.196 108,109.5C 104.89,110.309 101.557,109.643 98,107.5C 95.3876,108.673 92.7209,108.006 90,105.5C 88.8932,106.712 88.3932,106.379 88.5,104.5C 88.5,103.167 88.5,101.833 88.5,100.5C 89.6776,95.8104 91.1776,91.1437 93,86.5C 93.414,86.0426 93.914,85.7093 94.5,85.5C 95.2446,89.3024 96.4113,92.9691 98,96.5C 99.116,99.7556 100.949,102.422 103.5,104.5 Z"/>
  </g>
  <g transform="matrix(3.22183, 0, 0, 3.227406, -158.683578, -13.699218)" style="">
    <path style="opacity:1" fill="#6fafd6" d="M 107.5,93.5 C 107.483,95.5648 107.15,97.5648 106.5,99.5C 105.687,101.261 104.687,102.928 103.5,104.5C 104.065,100.463 105.399,96.7966 107.5,93.5 Z"/>
  </g>
  <g transform="matrix(3.22183, 0, 0, 3.227406, -158.683578, -13.699218)" style="">
    <path style="opacity:1" fill="#1074be" d="M 189.5,74.5 C 188.385,79.7499 188.219,85.0833 189,90.5C 191.29,91.8257 193.457,92.4923 195.5,92.5C 195.5,94.5 195.5,96.5 195.5,98.5C 194.076,100.515 193.41,102.848 193.5,105.5C 192.833,106.5 192.167,107.5 191.5,108.5C 189.042,107.377 186.875,107.377 185,108.5C 184.952,104.461 185.452,100.461 186.5,96.5C 186.685,88.7794 187.685,81.4461 189.5,74.5 Z"/>
  </g>
  <g transform="matrix(3.22183, 0, 0, 3.227406, -158.683578, -13.699218)" style="">
    <path style="opacity:1" fill="#91c8e0" d="M 53.5,96.5 C 55.7387,101.216 57.4054,106.216 58.5,111.5C 55.8605,106.915 54.1938,101.915 53.5,96.5 Z"/>
  </g>
  <g transform="matrix(3.22183, 0, 0, 3.227406, -158.683578, -13.699218)" style="">
    <path style="opacity:1" fill="#89bbdb" d="M 195.5,98.5 C 195.59,101.152 194.924,103.485 193.5,105.5C 193.41,102.848 194.076,100.515 195.5,98.5 Z"/>
  </g>
  <g transform="matrix(3.22183, 0, 0, 3.227406, -158.683578, -13.699218)" style="">
    <path style="opacity:1" fill="#0e89c7" d="M 88.5,104.5 C 88.3932,106.379 88.8932,106.712 90,105.5C 92.7209,108.006 95.3876,108.673 98,107.5C 101.557,109.643 104.89,110.309 108,109.5C 111.456,112.196 114.789,112.863 118,111.5C 118.853,113.125 119.853,113.458 121,112.5C 122.538,113.849 124.371,114.516 126.5,114.5C 117.094,121.041 107.094,122.041 96.5,117.5C 96.44,116.957 96.1067,116.624 95.5,116.5C 94.5059,121.456 94.1725,126.456 94.5,131.5C 94.5299,132.497 94.0299,133.164 93,133.5C 91.2367,133.025 89.57,132.358 88,131.5C 87.6667,131.833 87.3333,132.167 87,132.5C 86.3473,122.963 86.8473,113.629 88.5,104.5 Z"/>
  </g>
  <g transform="matrix(3.22183, 0, 0, 3.227406, -158.683578, -13.699218)" style="">
    <path style="opacity:1" fill="#1d8ec9" d="M 62.5,73.5 C 62.201,81.253 62.5343,88.9196 63.5,96.5C 63.4095,99.1522 64.0762,101.485 65.5,103.5C 65.5569,104.609 65.8902,105.609 66.5,106.5C 66.3691,107.376 66.7025,108.043 67.5,108.5C 68.9042,103.6 69.5709,98.5995 69.5,93.5C 69.7234,89.8379 70.7234,86.5046 72.5,83.5C 71.6789,86.5535 71.6789,89.5535 72.5,92.5C 73.4776,92.9767 74.3109,93.6433 75,94.5C 76.6605,93.8336 78.4938,93.8336 80.5,94.5C 79.4222,97.4021 78.7556,100.402 78.5,103.5C 78.5,103.833 78.5,104.167 78.5,104.5C 76.9481,109.401 76.2814,114.568 76.5,120C 76.5012,124.015 76.8345,127.849 77.5,131.5C 78.7928,133.364 78.7928,135.364 77.5,137.5C 68.8298,130.503 62.4964,121.836 58.5,111.5C 57.4054,106.216 55.7387,101.216 53.5,96.5C 53.5,95.1667 53.5,93.8333 53.5,92.5C 53.5,91.5 53.5,90.5 53.5,89.5C 56.2935,89.5845 58.7935,89.9178 61,90.5C 61.1728,84.6518 61.6728,78.9851 62.5,73.5 Z"/>
  </g>
  <g transform="matrix(3.22183, 0, 0, 3.227406, -158.683578, -13.699218)" style="">
    <path style="opacity:1" fill="#9acce2" d="M 69.5,93.5 C 69.5709,98.5995 68.9042,103.6 67.5,108.5C 66.7025,108.043 66.3691,107.376 66.5,106.5C 67.5924,102.184 68.5924,97.8511 69.5,93.5 Z"/>
  </g>
  <g transform="matrix(3.22183, 0, 0, 3.227406, -158.683578, -13.699218)" style="">
    <path style="opacity:1" fill="#8cc4df" d="M 63.5,96.5 C 64.9238,98.5145 65.5905,100.848 65.5,103.5C 64.0762,101.485 63.4095,99.1522 63.5,96.5 Z"/>
  </g>
  <g transform="matrix(3.22183, 0, 0, 3.227406, -158.683578, -13.699218)" style="">
    <path style="opacity:1" fill="#2386c6" d="M 186.5,96.5 C 185.452,100.461 184.952,104.461 185,108.5C 186.875,107.377 189.042,107.377 191.5,108.5C 189.139,117.554 184.472,125.22 177.5,131.5C 174.456,131.152 171.623,131.486 169,132.5C 168.5,132 168,131.5 167.5,131C 169.141,129.871 170.141,128.371 170.5,126.5C 177.945,117.609 183.278,107.609 186.5,96.5 Z"/>
  </g>
  <g transform="matrix(3.22183, 0, 0, 3.227406, -158.683578, -13.699218)" style="">
    <path style="opacity:1" fill="#91cce2" d="M 78.5,104.5 C 77.7817,113.482 77.4484,122.482 77.5,131.5C 76.8345,127.849 76.5012,124.015 76.5,120C 76.2814,114.568 76.9481,109.401 78.5,104.5 Z"/>
  </g>
  <g transform="matrix(3.22183, 0, 0, 3.227406, -158.683578, -13.699218)" style="">
    <path style="opacity:1" fill="#91cde2" d="M 96.5,117.5 C 95.5139,121.97 95.1805,126.637 95.5,131.5C 95.1667,131.5 94.8333,131.5 94.5,131.5C 94.1725,126.456 94.5059,121.456 95.5,116.5C 96.1067,116.624 96.44,116.957 96.5,117.5 Z"/>
  </g>
  <g transform="matrix(3.22183, 0, 0, 3.227406, -158.683578, -13.699218)" style="">
    <path style="opacity:1" fill="#1f95cc" d="M 170.5,126.5 C 170.141,128.371 169.141,129.871 167.5,131C 168,131.5 168.5,132 169,132.5C 171.623,131.486 174.456,131.152 177.5,131.5C 175.067,135.768 171.734,139.268 167.5,142C 164.757,144.038 161.757,145.538 158.5,146.5C 156.494,145.834 154.66,145.834 153,146.5C 150.286,145.794 148.119,144.461 146.5,142.5C 155.532,138.655 163.532,133.322 170.5,126.5 Z"/>
  </g>
  <g transform="matrix(3.22183, 0, 0, 3.227406, -158.683578, -13.699218)" style="">
    <path style="opacity:1" fill="#26a1d2" d="M 88.5,100.5 C 88.5,101.833 88.5,103.167 88.5,104.5C 86.8473,113.629 86.3473,122.963 87,132.5C 87.3333,132.167 87.6667,131.833 88,131.5C 89.57,132.358 91.2367,133.025 93,133.5C 94.0299,133.164 94.5299,132.497 94.5,131.5C 94.8333,131.5 95.1667,131.5 95.5,131.5C 95.1866,134.247 95.52,136.914 96.5,139.5C 112.755,147.443 129.422,148.443 146.5,142.5C 148.119,144.461 150.286,145.794 153,146.5C 154.66,145.834 156.494,145.834 158.5,146.5C 148.219,152.944 136.886,155.944 124.5,155.5C 111.682,155.506 99.6817,152.34 88.5,146C 85.6728,133.689 84.8394,121.189 86,108.5C 86.2794,105.543 87.1127,102.877 88.5,100.5 Z"/>
  </g>
  <g transform="matrix(1.961595, 0, 0, 1.905472, 1.333265, -0.610496)" style=""/>
  <g transform="matrix(1.961595, 0, 0, 1.905472, 1.333265, -0.610496)" style=""/>
  <g transform="matrix(1.961595, 0, 0, 1.905472, 1.333265, -0.610496)" style=""/>
  <g transform="matrix(1.961595, 0, 0, 1.905472, 1.333265, -0.610496)" style=""/>
  <g transform="matrix(1.961595, 0, 0, 1.905472, 1.333265, -0.610496)" style=""/>
  <g transform="matrix(1.961595, 0, 0, 1.905472, 1.333265, -0.610496)" style=""/>
  <g transform="matrix(1.961595, 0, 0, 1.905472, 1.333265, -0.610496)" style=""/>
</svg>